# xmcd
#
# Track frame offsets:
# 150
# 12644
# 30686
# 41900
# 53781
# 67052
# 81739
# 93720
# 105633
# 118068
# 136006
# 150315
#
# Disc length: 2166 seconds
#
#
# Revision: 0
# Processed by: cddbd v1.5.1PL0 Copyright (c) Steve Scherf et al.
# Submitted via: FreeRIP 2.70 
#
DISCID=a708740c
DTITLE=Goiano e Paranaense - Lágrimas de Pai
DYEAR=1900
DGENRE=Sertanejo Raiz
TTITLE0=Princesa
TTITLE1=Pai Francisco
TTITLE2=Brinquedo Quebrado
TTITLE3=Pagode na Poesia
TTITLE4=Traição
TTITLE5=Força Esquecida
TTITLE6=O Sequestro
TTITLE7=Anjo Pecador
TTITLE8=Meus Erros
TTITLE9=Lágrimas de Pai
TTITLE10=Caminho Certo
TTITLE11=Filho Caboclo
EXTD=By Max
EXTT0=
EXTT1=
EXTT2=
EXTT3=
EXTT4=
EXTT5=
EXTT6=
EXTT7=
EXTT8=
EXTT9=
EXTT10=
EXTT11=
PLAYORDER=
